<svg id="Слой_1_копия_" data-name="Слой 1 (копия)" xmlns="http://www.w3.org/2000/svg" viewBox="0 0 1730.5 372.22">
    <defs>
        <style>
            .cls-1{fill:#c1272d;}.cls-2{fill:#b3b3b3;}.cls-3{fill:#eaeaea;}.cls-4{fill:#686868;}.cls-5{fill:#ccc;}.cls-6{fill:#727272;}.cls-7{fill:#bbccfc;}.cls-8{fill:#b5b5b5;}.cls-9{fill:#6b6b6b;}.cls-10{fill:#93242c;}.cls-11{fill:#fff57b;}.cls-12{fill:#d8986c;}.cls-13{fill:#9bacd3;}.cls-14{fill:#838384;}
        </style>
    </defs>
    <title>Esminec_red</title>
    <polygon class="cls-1" points="92.5 372.22 1416.5 372.22 1665.5 292.22 45.5 292.22 92.5 372.22"/>
    <polygon class="cls-2" points="1666 293.35 1730.5 269.72 21 269.72 45 293.72 1666 293.35"/>
    <polyline class="cls-3" points="217 269.72 847 269.72 820.88 154.83 704.32 94.72"/>
    <rect class="cls-4" x="1321.76" y="208.42" width="116" height="7"
          transform="translate(-162.13 226.88) rotate(-10.96)"/>
    <rect class="cls-4" x="1623" y="258" width="116" height="7" transform="translate(-166.06 285.05) rotate(-10.96)"/>
    <polygon class="cls-2" points="1431.13 269.72 1456.04 198.61 1495.09 198.61 1495.09 269.72 1431.13 269.72"/>
    <polyline class="cls-2" points="1456.04 269.72 1520 269.72 1495.09 198.61"/>
    <polygon class="cls-5"
             points="1347.39 269.72 1282 210.72 1125 210.72 1028 81.72 643 81.72 575.74 269.72 1347.39 269.72"/>
    <rect class="cls-6" x="984" y="34.72" width="5" height="47"/>
    <polygon class="cls-6" points="998.75 0 974.25 0 962 21.22 974.25 42.44 998.75 42.44 1011 21.22 998.75 0"/>
    <polygon class="cls-7" points="1058.34 122.07 917 122.07 917 137.72 1070.11 137.72 1058.34 122.07"/>
    <polygon class="cls-7" points="1082.49 154.18 1096.7 173.08 917 173.08 917 153.72 1082.49 154.18"/>
    <polygon class="cls-8" points="605.1 187.64 708 208.72 708 269.72 576 269.72 605.1 187.64"/>
    <polygon class="cls-8" points="642 81.72 267.39 269.72 278.35 269.72 640.15 89.69 642 81.72"/>
    <polygon class="cls-8" points="635.64 102.28 638.36 94.68 288.26 269.72 299.22 269.72 635.64 102.28"/>
    <rect class="cls-9" x="483" y="228.72" width="41" height="41"/>
    <rect class="cls-4" x="1317.76" y="189.42" width="116" height="7"
          transform="translate(-158.59 225.77) rotate(-10.96)"/>
    <polygon class="cls-2" points="1131.89 211.14 1156.8 140.03 1195.86 140.03 1195.86 211.14 1131.89 211.14"/>
    <polyline class="cls-2" points="1156.8 211.14 1220.76 211.14 1195.86 140.03"/>
    <polygon class="cls-10" points="124 348.72 49 348.72 66 326.72 62 319.72 42 352.72 124 351.72 124 348.72"/>
    <polyline class="cls-11" points="47 350.72 34 339.72 9 339.72 20 350.72 47 350.72"/>
    <line class="cls-4" x1="20" y1="350.72" x2="47" y2="350.72"/>
    <polyline class="cls-11" points="47 350.72 34 360.72 9 360.72 20 350.72 47 350.72"/>
    <polygon class="cls-12" points="51 350.72 34 344.72 0 344.72 21.75 350.72 51 350.72"/>
    <polygon class="cls-10" points="75.21 342.79 1507.75 342.79 1525.17 337.3 71.99 337.3 75.21 342.79"/>
    <polygon class="cls-13" points="1077.33 173.08 1058.48 154.22 1067.9 154.22 1086.79 173.11 1077.33 173.08"/>
    <polygon class="cls-2" points="947 201.72 1118.23 201.72 1095 170.72 917 172.72 947 201.72"/>
    <path class="cls-2" d="M1253,110" transform="translate(-147 -39.28)"/>
    <rect class="cls-2" x="741" y="117.72" width="114" height="58"/>
    <rect class="cls-14" x="741" y="117.72" width="7" height="58"/>
    <rect class="cls-5" x="802" y="163.72" width="27" height="12"/>
    <rect class="cls-5" x="821" y="117.72" width="8" height="46"/>
</svg>