<svg xmlns="http://www.w3.org/2000/svg" viewBox="0 0 1906 856">
    <defs>
        <style>
            .cls-1{fill:#c1272d;}.cls-2{fill:#a5252f;}.cls-3{fill:#e0dd86;}.cls-4{fill:#fbb03b;}.cls-5{fill:#4d4d4d;}.cls-6{fill:#9e262f;}.cls-7{fill:#9b3a45;}.cls-8{fill:#999;}.cls-9{fill:#666;}.cls-10{fill:gray;}.cls-11{fill:#b3b3b3;}.cls-12{fill:#707070;}.cls-13{fill:#4c4c4c;}.cls-14{fill:#ccc;}.cls-15{fill:#c7b299;}.cls-16{fill:#a5a5a5;}
        </style>
    </defs>
    <title>Esminec_red</title>
    <g id="Слой_1" data-name="Слой 1">
        <polygon class="cls-1"
                 points="361.11 855.49 1687.39 855.49 1905.39 636.13 10.35 636.13 42.63 710.1 76.73 744.01 253.93 745.19 361.11 855.49"/>
        <rect class="cls-2" x="221.66" y="796.41" width="95" height="7.19"/>
        <path class="cls-3" d="M268.75,1390.49l-19.49-16.44H196.89l19.49,16.44S268.75,1389.85,268.75,1390.49Z"
              transform="translate(-41 -591)"/>
        <path class="cls-3" d="M268.75,1390.49l-19.49,16.44H196.89l19.49-16.44S268.75,1391.13,268.75,1390.49Z"
              transform="translate(-41 -591)"/>
        <polygon class="cls-4" points="231.4 800.52 210.69 792.3 154.67 792.3 169.29 800.52 231.4 800.52"/>
        <polygon class="cls-2" points="102.3 738.87 96.21 757.37 142.49 757.37 132.75 738.87 102.3 738.87"/>
        <polygon class="cls-2"
                 points="36.99 697.17 278.9 714.21 450.62 791.27 706.38 828.26 745.96 855.49 360.5 854.97 253.32 745.03 76.73 744.01 42.63 710.1 36.99 697.17"/>
        <polygon class="cls-1"
                 points="868.36 515.91 851.31 580.64 1027.9 582.7 1099.76 528.24 1014.5 510.78 868.36 515.91"/>
        <path class="cls-5" d="M1386.77,1228.15" transform="translate(-41 -591)"/>
        <polygon class="cls-6" points="1345.77 637.15 1339.68 855.5 1688 856 1906 636.13 1345.77 637.15"/>
        <polygon class="cls-7"
                 points="878.1 633.04 851.31 719.35 887.84 816.96 876.07 856 1087.17 855.49 1074.18 817.98 1113.15 716.27 1082.7 622.77 878.1 633.04"/>
        <polygon class="cls-7" points="254.54 634.07 334.92 675.17 554.14 684.42 674.71 634.07 254.54 634.07"/>
    </g>
    <g id="Слой_2" data-name="Слой 2">
        <polyline class="cls-8"
                  points="1905.39 636.64 1669.73 437.83 1339.68 437.83 1234.94 311.45 1105.85 312.48 1037.64 202.03 893.32 202.03 812.33 270.35 617.47 270.35 617.47 449.13 9.74 449.13 9.74 637.15"/>
        <rect class="cls-9" x="36.54" y="479.95" width="580.93" height="30.82"/>
        <rect class="cls-10" x="269.15" y="551.87" width="246.01" height="85.28"/>
        <rect class="cls-5" y="429.61" width="870.79" height="33.91"/>
        <rect class="cls-11" x="617.47" y="270.35" width="253.32" height="159.26"/>
        <polygon class="cls-12" points="1536.98 405.98 1655.11 379.26 1657.55 385.43 1541.85 413.17 1536.98 405.98"/>
        <polygon class="cls-13" points="1388.4 437.83 1434.86 386.97 1554.53 386.97 1601.22 438.08 1388.4 437.83"/>
        <polygon class="cls-14"
                 points="892.71 201.51 812.33 270.35 870.79 270.35 870.79 463.51 698.66 463.51 693.79 637.15 1345.77 637.15 1345.77 589.89 1362.82 522.08 1339.68 437.83 1108.28 437.83 1105.85 312.48 1037.64 201.51 892.71 201.51"/>
        <rect class="cls-5" x="1180.14" y="333.03" width="15.83" height="24.66"/>
        <rect class="cls-5" x="1149.69" y="333.03" width="15.83" height="24.66"/>
        <rect class="cls-5" x="1075.4" y="333.03" width="15.83" height="24.66"/>
        <rect class="cls-5" x="1044.95" y="333.03" width="15.83" height="24.66"/>
        <rect class="cls-5" x="964.57" y="333.03" width="15.83" height="24.66"/>
        <rect class="cls-5" x="934.12" y="333.03" width="15.83" height="24.66"/>
        <polygon class="cls-11" points="901.24 202.54 938.99 50.48 987.71 50.48 1026.68 202.54 901.24 202.54"/>
        <polygon class="cls-15" points="981.05 0 945.8 0 928.17 25.75 945.8 51.51 981.05 51.51 998.67 25.75 981.05 0"/>
        <polygon class="cls-11" points="1770.2 522.59 1362.82 522.08 1339.68 437.83 1669.73 437.83 1770.2 522.59"/>
        <polygon class="cls-11" points="695.18 587.81 515.17 580.64 561.45 532.35 697.19 515.9 695.18 587.81"/>
        <polygon class="cls-16" points="898.8 573.45 912.2 520.02 1099.76 520.02 1099.76 573.45 898.8 573.45"/>
        <rect class="cls-5" x="639.39" y="313.57" width="88.91" height="11.73"/>
        <rect class="cls-5" x="639.39" y="299.49" width="88.91" height="11.73"/>
        <rect class="cls-5" x="639.39" y="352.82" width="88.91" height="11.73"/>
        <rect class="cls-5" x="639.39" y="338.74" width="88.91" height="11.73"/>
        <rect class="cls-5" x="753.87" y="313.57" width="88.91" height="11.73"/>
        <rect class="cls-5" x="753.87" y="299.49" width="88.91" height="11.73"/>
        <rect class="cls-5" x="753.87" y="352.82" width="88.91" height="11.73"/>
        <rect class="cls-5" x="753.87" y="338.74" width="88.91" height="11.73"/>
        <polygon class="cls-13"
                 points="1179 480.58 1157.5 498.72 1179 516.86 1261 516.86 1282.5 498.72 1261 480.58 1179 480.58"/>
    </g>
</svg>