<?xml version="1.0" encoding="UTF-8" standalone="no"?><!-- Generator: Gravit.io -->
<svg xmlns="http://www.w3.org/2000/svg" xmlns:xlink="http://www.w3.org/1999/xlink" style="isolation:isolate"
     viewBox="0 0 20 20" width="20pt" height="20pt">
    <defs>
        <clipPath id="_clipPath_wGwR9wq9eugfpmzr36RcLzxPvQwuqlDJ">
            <rect width="20" height="20"/>
        </clipPath>
    </defs>
    <g clip-path="url(#_clipPath_wGwR9wq9eugfpmzr36RcLzxPvQwuqlDJ)">
        <radialGradient id="_rgradient_0" fx="50%" fy="50%" cx="50%" cy="50%" r="50%">
            <stop offset="0%" style="stop-color:#082567"/>
            <stop offset="100%" style="stop-color:#000000"/>
        </radialGradient>
        <rect width="20" height="20" style="fill:url(#_rgradient_0);"/>
        <g fill="url(#_lgradient_1)">
            <text transform="matrix(1,0,0,1,1.024,13.033)"
                  style="font-family:'Open Sans';font-weight:400;font-size:15px;font-style:normal;stroke:none;">SB
            </text>
        </g>
        <defs>
            <linearGradient id="_lgradient_1" x1="0" y1="0.5" x2="1.815625" y2="0.51">
                <stop offset="0%" style="stop-color:#FFFFFF"/>
                <stop offset="100%" style="stop-color:#000000"/>
            </linearGradient>
        </defs>
        <g>
            <path d=" M 13.2 17.26 L 12.299 14.526 L 8.455 14.526 L 7.82 15.442 L 5.868 15.442 L 4.775 16.536 L 2.498 16.536 L 1.752 17.282 L 13.2 17.26 L 13.2 17.26 Z "
                  fill="rgb(102,102,102)"/>
            <path d=" M 11.183 17.275 L 10.953 16.462 L 8.115 16.462 L 7.701 17.275 L 11.183 17.275 L 11.183 17.275 Z "
                  fill="rgb(102,102,102)"/>
            <path d=" M 12.002 17.26 L 12.231 16.447 L 15.069 16.447 L 15.483 17.26 L 12.002 17.26 L 12.002 17.26 Z "
                  fill="rgb(109,109,109)"/>
            <path d=" M 14.508 17.275 L 13.91 15.812 L 10.185 15.812 L 9.49 17.275 L 14.508 17.275 L 14.508 17.275 Z "
                  fill="rgb(153,153,153)"/>
            <path d=" M 4.156 17.29 L 4.851 16.196 L 9.463 16.196 L 10.793 17.275 L 4.156 17.29 L 4.156 17.29 Z "
                  fill="rgb(128,128,128)"/>
            <path d=" M 17.433 17.29 L 17.28 16.61 L 16.97 16.61 L 16.861 17.29 L 17.433 17.29 L 17.433 17.29 Z "
                  fill="rgb(153,153,153)"/>
            <path d=" M 17.029 16.069 L 18.49 15.959 L 18.537 16.014 L 17.09 16.093 L 17.029 16.069 L 17.029 16.069 Z "
                  fill="rgb(102,102,102)"/>
            <path d="M 17.468 16.699 L 16.826 16.699 C 16.759 16.699 16.704 16.644 16.704 16.576 L 16.704 15.934 C 16.704 15.867 16.759 15.812 16.826 15.812 L 17.468 15.812 C 17.536 15.812 17.591 15.867 17.591 15.934 L 17.591 16.576 C 17.591 16.644 17.536 16.699 17.468 16.699 Z"
                  style="stroke:none;fill:#808080;stroke-miterlimit:10;"/>
            <path d=" M 11.101 14.526 L 10.968 14.156 L 10.806 14.156 L 10.687 14.526 L 11.101 14.526 L 11.101 14.526 Z "
                  fill="rgb(153,153,153)"/>
            <rect x="10.879" y="13.728" width="1.035" height="0.089"
                  transform="matrix(0.993,-0.121,0.121,0.993,-1.581,1.478)" fill="rgb(102,102,102)"/>
            <path d="M 11.082 14.2 L 10.706 14.2 C 10.639 14.2 10.584 14.146 10.584 14.078 L 10.584 13.702 C 10.584 13.634 10.639 13.58 10.706 13.58 L 11.082 13.58 C 11.15 13.58 11.205 13.634 11.205 13.702 L 11.205 14.078 C 11.205 14.146 11.15 14.2 11.082 14.2 Z"
                  style="stroke:none;fill:#808080;stroke-miterlimit:10;"/>
            <path d=" M 7.125 15.442 L 7.214 15.191 L 6.844 15.191 L 6.925 15.442 L 7.125 15.442 L 7.125 15.442 Z "
                  fill="rgb(128,128,128)"/>
            <path d=" M 6.903 14.916 L 6.138 14.778 L 6.175 14.753 L 6.929 14.889 L 6.903 14.916 L 6.903 14.916 Z "
                  fill="rgb(153,153,153)"/>
            <path d=" M 6.793 14.977 L 6.336 14.894 L 6.358 14.879 L 6.809 14.961 L 6.793 14.977 L 6.793 14.977 Z "
                  fill="rgb(153,153,153)"/>
            <path d="M 7.209 15.206 L 6.848 15.206 C 6.781 15.206 6.726 15.151 6.726 15.083 L 6.726 14.722 C 6.726 14.654 6.781 14.6 6.848 14.6 L 7.209 14.6 C 7.277 14.6 7.332 14.654 7.332 14.722 L 7.332 15.083 C 7.332 15.151 7.277 15.206 7.209 15.206 Z"
                  style="stroke:none;fill:#666666;stroke-miterlimit:10;"/>
            <path d=" M 18.816 18.51 L 2.153 18.51 L 1.367 18.02 L 0.218 17.541 L 19.702 17.541" fill="rgb(193,39,45)"/>
            <path d=" M 14.046 16.144 L 12.446 16.144 L 12.446 16.285 L 14.103 16.285 L 14.046 16.144 L 14.046 16.144 Z "
                  fill="rgb(51,51,51)"/>
            <path d=" M 14.046 16.144 L 12.446 16.144 L 12.446 16.285 L 14.103 16.285 L 14.046 16.144 L 14.046 16.144 Z "
                  fill="rgb(51,51,51)"/>
            <path d=" M 12.382 14.778 L 12.401 14.838 L 11.574 14.838 L 11.574 14.777 L 12.382 14.778 L 12.382 14.778 Z "
                  fill="rgb(51,51,51)"/>
            <path d=" M 8.239 14.838 L 9.253 14.836 L 9.253 14.747 L 8.302 14.747 L 8.239 14.838 L 8.239 14.838 Z "
                  fill="rgb(51,51,51)"/>
            <path d=" M 8.133 14.99 L 8.194 14.903 L 9.253 14.903 L 9.253 14.984 L 8.133 14.99 L 8.133 14.99 Z "
                  fill="rgb(51,51,51)"/>
            <path d=" M 2.398 18.388 L 1.214 18.388 L 1.265 17.918 L 1.388 17.949 L 1.327 18.306 L 2.398 18.306 L 2.398 18.388 L 2.398 18.388 Z "
                  fill="rgb(168,39,49)"/>
            <path d=" M 1.214 18.388 L 1.071 18.306 L 0.796 18.306 L 0.847 18.347 L 0.918 18.388 L 1.214 18.388 L 1.214 18.388 Z "
                  fill="rgb(216,197,113)"/>
            <path d=" M 1.214 18.388 L 1.071 18.469 L 0.796 18.469 L 0.847 18.429 L 0.918 18.388 L 1.214 18.388 L 1.214 18.388 Z "
                  fill="rgb(216,197,113)"/>
            <path d=" M 1.214 18.388 L 1.071 18.337 L 0.796 18.337 L 0.888 18.388 L 1.214 18.388 L 1.214 18.388 Z "
                  fill="rgb(251,176,59)"/>
            <path d=" M 2.611 18.51 L 2.153 18.439 L 1.51 17.969 L 0.576 17.691 L 1.259 17.975 L 1.376 18.026 L 2.153 18.51 L 2.611 18.51 L 2.611 18.51 Z "
                  fill="rgb(168,39,49)"/>
            <path d=" M 1.033 17.846 L 1.074 17.964 L 0.79 17.875 L 0.867 17.794 L 1.033 17.846 L 1.033 17.846 Z "
                  fill="rgb(168,39,49)"/>
            <path d=" M 18.837 18.469 L 19.173 18.714 L 18.837 19 L 17.99 19 L 17.755 18.735 L 18.02 18.469 L 18.837 18.469 L 18.837 18.469 Z "
                  fill="rgb(193,39,45)"/>
            <path d=" M 19.184 18.112 L 16.541 18.163 L 15.918 18.51 L 18.837 18.51 L 19.184 18.112 L 19.184 18.112 Z "
                  fill="rgb(168,39,49)"/>
            <path d=" M 3.551 18.51 L 1.556 18.138 L 2.153 18.51 L 3.551 18.51 L 3.551 18.51 Z " fill="rgb(168,39,49)"/>
            <path d=" M 14.28 16.717 L 12.49 16.806 L 12 17.163 L 14.463 17.163 L 14.28 16.717 L 14.28 16.717 Z "
                  fill="rgb(127,127,127)"/>
            <path d=" M 0.218 17.541 L 0 17.26 L 20 16.975 L 19.702 17.541 L 0.218 17.541 L 0.218 17.541 Z "
                  fill="rgb(204,204,204)"/>
            <path d=" M 12.543 15.307 L 10.827 15.307 L 9.571 15.551 L 12.623 15.551 L 12.543 15.307 L 12.543 15.307 Z "
                  fill="rgb(109,109,109)"/>
            <path d=" M 19.866 17.229 L 17.755 17.276 L 17 17.541 L 19.704 17.541 L 19.866 17.229 L 19.866 17.229 Z "
                  fill="rgb(180,202,204)"/>
            <path d=" M 14.508 17.541 L 14.378 17.286 L 13.276 17.327 L 13.071 17.541 L 14.508 17.541 L 14.508 17.541 Z "
                  fill="rgb(180,202,204)"/>
            <path d=" M 10.087 17.116 L 9.755 17.282 L 8.684 17.29 L 8.52 17.139 L 10.087 17.116 L 10.087 17.116 Z "
                  fill="rgb(180,202,204)"/>
            <path d=" M 5.23 17.541 L 4.98 17.459 L 4.684 17.459 L 4.413 17.541 L 5.23 17.541 L 5.23 17.541 Z "
                  fill="rgb(180,202,204)"/>
            <path d=" M 3.572 17.209 L 3.571 17.347 L 2.969 17.347 L 2.969 17.218 L 3.572 17.209 L 3.572 17.209 Z "
                  fill="rgb(180,202,204)"/>
        </g>
    </g>
</svg>