<svg xmlns="http://www.w3.org/2000/svg" viewBox="0 0 1842 444.29">
    <defs>
        <style>
            .cls-1,.cls-16,.cls-17{fill:#999;}.cls-2{fill:#28bf2c;}.cls-3{fill:#2ece32;}.cls-4{opacity:0.1;}.cls-5{opacity:0.11;}.cls-6{fill:#28bf3a;}.cls-7{fill:#fcee21;}.cls-8{fill:#fbb03b;}.cls-9{fill:#2dbf28;}.cls-10{fill:#e6e6e6;}.cls-11{fill:#4d4d4d;}.cls-12{fill:gray;}.cls-13{fill:#333;}.cls-14{fill:#ccc;}.cls-15{fill:#b3b3b3;}.cls-16{opacity:0.7;}.cls-17{opacity:0.5;}
        </style>
    </defs>
    <title>Kreyser_green</title>
    <g id="Слой_1" data-name="Слой 1">
        <polygon class="cls-1"
                 points="1197.18 414.88 1228.96 428.4 1197.18 442.21 1079.85 444.29 1051.74 431.16 1078.02 417.16 1197.18 414.88"/>
        <polygon class="cls-1"
                 points="1765 275.08 1702.62 344.15 1681.03 363.14 1630.42 407.68 253.59 432.55 177.02 380.06 56 349.67 50.05 335.84 37 305.47 1765 275.08"/>
        <path class="cls-1"
              d="M1827.71,1214.12l-60.79,67.31-21.55,19-50.34,44.3L318.89,1369.54l-76.3-52.31-.15-.1-.18,0-120.54-30.27L116,1273.44l-12.46-29,1724.2-30.32m2.29-1L102,1243.47l13,30.37,6,13.83,121,30.39,76.57,52.49,1376.83-24.87,50.61-44.54,21.59-19,62.38-69.07Z"
              transform="translate(-65 -938)"/>
        <polygon class="cls-1"
                 points="1681.03 363.14 1630.42 407.68 253.59 432.55 177.02 380.06 56 349.67 50.05 335.84 344 390.44 1608 374.03 1681.03 363.14"/>
        <polygon class="cls-1" points="844.67 421.87 867.35 383.64 999.68 381.93 1024.67 418.62 844.67 421.87"/>
        <polygon class="cls-1"
                 points="205.46 390.42 221.87 398.01 205.46 420.8 365.17 420.8 360.8 423.57 189.05 423.57 205.46 390.42"/>
        <polygon class="cls-1" points="189.05 423.57 171.55 415.28 146.39 415.28 156.24 423.57 189.05 423.57"/>
        <polygon class="cls-1" points="189.05 423.57 171.55 431.85 146.39 431.85 156.24 423.57 189.05 423.57"/>
        <polygon class="cls-1" points="189.05 423.57 167.18 419.42 146.39 419.42 154.05 423.57 189.05 423.57"/>
        <polygon class="cls-1" points="89.51 357.5 146.39 371.89 113.57 390.42 88.41 384.2 89.51 357.5"/>
        <polygon class="cls-2"
                 points="1197.18 414.88 1228.96 428.4 1197.18 442.21 1079.85 444.29 1051.74 431.16 1078.02 417.16 1197.18 414.88"/>
        <polygon class="cls-3"
                 points="1765 275.08 1702.62 344.15 1681.03 363.14 1630.42 407.68 253.59 432.55 177.02 380.06 56 349.67 50.05 335.84 37 305.47 1765 275.08"/>
        <polygon class="cls-4"
                 points="1681.03 363.14 1630.42 407.68 253.59 432.55 177.02 380.06 56 349.67 50.05 335.84 344 390.44 1608 374.03 1681.03 363.14"/>
        <polygon class="cls-5" points="844.67 421.87 867.35 383.64 999.68 381.93 1024.67 418.62 844.67 421.87"/>
        <polygon class="cls-6"
                 points="205.46 390.42 221.87 398.01 205.46 420.8 365.17 420.8 360.8 423.57 189.05 423.57 205.46 390.42"/>
        <polygon class="cls-7" points="189.05 423.57 171.55 415.28 146.39 415.28 156.24 423.57 189.05 423.57"/>
        <polygon class="cls-7" points="189.05 423.57 171.55 431.85 146.39 431.85 156.24 423.57 189.05 423.57"/>
        <polygon class="cls-8" points="189.05 423.57 167.18 419.42 146.39 419.42 154.05 423.57 189.05 423.57"/>
        <polygon class="cls-9" points="89.51 357.5 146.39 371.89 113.57 390.42 88.41 384.2 89.51 357.5"/>
    </g>
    <g id="Слой_2" data-name="Слой 2">
        <polygon class="cls-10" points="1763 273.82 1785 246.88 16 274.51 35 304.21 1763 273.82"/>
    </g>
    <g id="Слой_4" data-name="Слой 4">
        <polygon class="cls-11" points="684.54 3 543.57 4.79 505.89 108.83 728.84 105.99 684.54 3"/>
        <polygon class="cls-11" points="919.49 0 778.52 1.8 740.84 105.84 963.79 103 919.49 0"/>
        <polygon class="cls-12"
                 points="431.25 120.52 429.3 59.55 452.45 35.62 504.18 34.96 529.29 58.7 531.23 119.25 431.25 120.52"/>
        <polygon class="cls-12"
                 points="555.22 118.94 553.27 57.97 576.42 34.04 628.15 33.38 653.26 57.12 655.2 117.66 555.22 118.94"/>
        <polygon class="cls-12"
                 points="679.2 117.36 677.25 56.38 700.4 32.46 752.13 31.8 777.24 55.54 779.17 116.08 679.2 117.36"/>
        <polygon class="cls-1"
                 points="1188.38 151.28 313.56 162.43 411.03 98.36 742.47 94.14 847.04 25.39 1098.24 22.19 1190.16 77.93 1188.38 151.28"/>
        <polygon class="cls-13" points="1158.04 58.45 867.47 62.15 867.23 48.78 1136.11 45.35 1158.04 58.45"/>
        <polygon class="cls-13" points="380.99 118.11 545.13 116.02 545.36 123.48 369.4 125.73 380.99 118.11"/>
    </g>
    <g id="Слой_3" data-name="Слой 3">
        <polygon class="cls-12" points="1607.73 102.33 1401.13 115.6 1400.62 107.32 1607.22 94.05 1607.73 102.33"/>
        <polygon class="cls-14" points="1437.8 91.22 1306.66 92.23 1266.11 145.65 1484.7 141.94 1437.8 91.22"/>
        <polygon class="cls-15" points="1784 248.15 1842 136.27 0 163.89 18 275.77 1784 248.15"/>
        <polygon class="cls-14" points="1228.96 145.65 1200 176.42 5.44 197.73 0 162.53 1228.96 145.65"/>
        <polygon class="cls-16" points="721.96 184.95 791.98 263.69 1039.98 259.81 1094.06 178.31 721.96 184.95"/>
        <polygon class="cls-17" points="1471.99 141.43 1427 206.09 1608 202.3 1646.96 138.75 1471.99 141.43"/>
        <polygon class="cls-17" points="1650 250.28 1674 202.93 1810.81 199.78 1783.54 248.39 1650 250.28"/>
    </g>
</svg>