<svg id="Слой_1" data-name="Слой 1" xmlns="http://www.w3.org/2000/svg" xmlns:xlink="http://www.w3.org/1999/xlink"
     viewBox="0 0 990.94 244.56">
    <defs>
        <style>
            .cls-1{fill:none;}.cls-2{clip-path:url(#clip-path);}.cls-3{fill:#999;}.cls-4{fill:#28bf2c;}.cls-5{fill:#2ece32;}.cls-6{clip-path:url(#clip-path-3);}.cls-7{opacity:0.1;}.cls-8{clip-path:url(#clip-path-4);}.cls-9{opacity:0.11;}.cls-10{clip-path:url(#clip-path-5);}.cls-11{fill:#28bf3a;}.cls-12{fill:#fcee21;}.cls-13{fill:#fbb03b;}.cls-14{fill:#2dbf28;}.cls-15{fill:#e6e6e6;}.cls-16{fill:#4d4d4d;}.cls-17{fill:gray;}.cls-18{fill:#333;}.cls-19{fill:#ccc;}.cls-20{fill:#b3b3b3;}.cls-21{opacity:0.7;}.cls-22{clip-path:url(#clip-path-7);}.cls-23{opacity:0.5;}.cls-24{clip-path:url(#clip-path-8);}.cls-25{clip-path:url(#clip-path-9);}
        </style>
        <clipPath id="clip-path" transform="translate(-9.27 -134.25)">
            <rect class="cls-1" x="3" y="-1" width="997.21" height="501.36"/>
        </clipPath>
        <clipPath id="clip-path-3" transform="translate(-9.27 -134.25)">
            <rect class="cls-1" x="8.97" y="-1" width="991.23" height="501.36"/>
        </clipPath>
        <clipPath id="clip-path-4" transform="translate(-9.27 -134.25)">
            <rect class="cls-1" x="36.22" y="319.12" width="878.23" height="53.23"/>
        </clipPath>
        <clipPath id="clip-path-5" transform="translate(-9.27 -134.25)">
            <rect class="cls-1" x="464.09" y="344.49" width="96.93" height="21.99"/>
        </clipPath>
        <clipPath id="clip-path-7" transform="translate(-9.27 -134.25)">
            <rect class="cls-1" x="398.02" y="232.4" width="200.36" height="47"/>
        </clipPath>
        <clipPath id="clip-path-8" transform="translate(-9.27 -134.25)">
            <rect class="cls-1" x="777.66" y="210.63" width="118.44" height="37.07"/>
        </clipPath>
        <clipPath id="clip-path-9" transform="translate(-9.27 -134.25)">
            <rect class="cls-1" x="897.74" y="244.22" width="86.59" height="27.8"/>
        </clipPath>
    </defs>
    <title>Kreyser_green</title>
    <g class="cls-2">
        <g class="cls-2">
            <polygon class="cls-3"
                     points="566.33 237.34 580.48 229.63 644.64 228.38 661.75 235.82 644.64 243.43 581.47 244.56 566.33 237.34"/>
            <polygon class="cls-3"
                     points="95.32 209.21 30.15 192.48 26.95 184.87 19.92 168.15 950.39 151.43 916.8 189.44 905.18 199.9 877.92 224.41 136.55 238.1 95.32 209.21"/>
            <path class="cls-3"
                  d="M30,302.94l6.71,16,3.1,7.36,64.91,16.66.09,0,.08.05L146,371.8l741-13.68,27.11-24.39,11.6-10.43,32.74-37.05Zm74.59,40.52L39.42,326.73l-3.2-7.61-7-16.72,930.47-16.73-33.59,38-11.63,10.46-27.25,24.51L145.82,372.35Z"
                  transform="translate(-9.27 -134.25)"/>
            <polygon class="cls-3"
                     points="95.32 209.21 30.15 192.48 26.95 184.87 185.23 214.93 865.85 205.89 905.18 199.9 877.92 224.41 136.55 238.1 95.32 209.21"/>
            <polygon class="cls-3" points="467.04 211.18 538.29 210.24 551.75 230.44 454.83 232.23 467.04 211.18"/>
            <polygon class="cls-3"
                     points="101.8 233.16 110.63 214.91 119.47 219.09 110.63 231.64 196.63 231.64 194.28 233.16 101.8 233.16"/>
            <polygon class="cls-3" points="84.13 233.16 78.83 228.6 92.37 228.6 101.8 233.16 84.13 233.16"/>
            <polygon class="cls-3" points="78.83 237.72 84.13 233.16 101.8 233.16 92.37 237.72 78.83 237.72"/>
            <polygon class="cls-3" points="82.95 233.16 78.83 230.88 90.02 230.88 101.8 233.16 82.95 233.16"/>
            <polygon class="cls-3" points="47.61 211.49 48.2 196.79 78.83 204.71 61.16 214.91 47.61 211.49"/>
            <polygon class="cls-4"
                     points="566.33 237.34 580.48 229.63 644.64 228.38 661.75 235.82 644.64 243.43 581.47 244.56 566.33 237.34"/>
            <polygon class="cls-5"
                     points="95.32 209.21 30.15 192.48 26.95 184.87 19.92 168.15 950.39 151.43 916.8 189.44 905.18 199.9 877.92 224.41 136.55 238.1 95.32 209.21"/>
            <g class="cls-6">
                <g class="cls-7">
                    <g class="cls-8">
                        <polygon
                                points="136.55 238.1 95.32 209.21 30.15 192.48 26.95 184.87 185.23 214.92 865.85 205.89 905.18 199.9 877.92 224.41 136.55 238.1"/>
                    </g>
                </g>
                <g class="cls-9">
                    <g class="cls-10">
                        <polygon points="454.83 232.23 467.04 211.18 538.29 210.24 551.75 230.44 454.83 232.23"/>
                    </g>
                </g>
            </g>
            <polygon class="cls-11"
                     points="101.8 233.16 110.63 214.91 119.47 219.09 110.63 231.64 196.63 231.64 194.28 233.16 101.8 233.16"/>
            <polygon class="cls-12" points="84.13 233.16 78.83 228.6 92.37 228.6 101.8 233.16 84.13 233.16"/>
            <polygon class="cls-12" points="78.83 237.72 84.13 233.16 101.8 233.16 92.37 237.72 78.83 237.72"/>
            <polygon class="cls-13" points="82.95 233.16 78.83 230.88 90.02 230.88 101.8 233.16 82.95 233.16"/>
            <polygon class="cls-14" points="47.61 211.49 48.2 196.79 78.83 204.71 61.16 214.91 47.61 211.49"/>
            <polygon class="cls-15" points="8.62 151.11 961.16 135.9 949.32 150.73 18.85 167.46 8.62 151.11"/>
            <polygon class="cls-16" points="292.69 2.64 368.6 1.65 392.46 58.34 272.4 59.91 292.69 2.64"/>
            <polygon class="cls-16" points="419.21 0.99 495.12 0 518.97 56.7 398.92 58.26 419.21 0.99"/>
            <polygon class="cls-17"
                     points="231.16 32.78 243.63 19.61 271.48 19.25 285 32.31 286.05 65.64 232.21 66.34 231.16 32.78"/>
            <polygon class="cls-17"
                     points="297.92 31.91 310.38 18.74 338.24 18.38 351.76 31.44 352.8 64.77 298.97 65.47 297.92 31.91"/>
            <polygon class="cls-17"
                     points="364.67 31.04 377.14 17.87 405 17.51 418.52 30.57 419.56 63.9 365.72 64.6 364.67 31.04"/>
            <polygon class="cls-3"
                     points="221.33 54.14 399.79 51.82 456.1 13.98 591.36 12.22 640.86 42.9 639.9 83.28 168.84 89.41 221.33 54.14"/>
            <polygon class="cls-18" points="466.97 26.85 611.76 24.96 623.56 32.17 467.1 34.21 466.97 26.85"/>
            <polygon class="cls-18" points="205.15 65.02 293.53 63.86 293.66 67.97 198.91 69.21 205.15 65.02"/>
            <polygon class="cls-17" points="754.19 59.07 865.43 51.77 865.71 56.33 754.46 63.63 754.19 59.07"/>
            <polygon class="cls-19" points="703.59 50.77 774.2 50.22 799.46 78.14 681.76 80.17 703.59 50.77"/>
            <polygon class="cls-20" points="0 90.22 990.94 75.02 990.94 76.81 960.62 136.6 9.69 151.8 0 90.22"/>
            <polygon class="cls-19" points="0 89.47 661.75 80.17 646.16 97.11 2.93 108.84 0 89.47"/>
            <g class="cls-6">
                <g class="cls-21">
                    <g class="cls-22">
                        <polygon class="cls-3"
                                 points="426.45 145.15 388.75 101.81 388.75 101.81 589.09 98.15 589.11 98.15 559.99 143.02 426.45 145.15"/>
                    </g>
                </g>
                <g class="cls-23">
                    <g class="cls-24">
                        <polygon class="cls-3"
                                 points="768.39 113.45 792.62 77.85 886.77 76.38 886.83 76.38 865.85 111.36 768.43 113.45 768.39 113.45"/>
                    </g>
                </g>
                <g class="cls-23">
                    <g class="cls-25">
                        <polygon class="cls-3"
                                 points="888.47 137.77 901.39 111.71 975.04 109.97 975.06 109.97 975.06 109.97 960.37 136.73 888.47 137.77"/>
                    </g>
                </g>
            </g>
        </g>
    </g>
</svg>