<svg id="Слой_1" data-name="Слой 1" xmlns="http://www.w3.org/2000/svg" viewBox="0 0 36.35 7.66">
    <defs>
        <style>.cls-1{fill:red;}.cls-2{fill:#00008b;}.cls-3{fill:#999;}</style>
    </defs>
    <title>Kreyser_red</title>
    <polygon class="cls-1" points="1.92 6.86 35.9 7.02 35.39 7.66 2.43 7.66 1.92 6.86"/>
    <polygon class="cls-2"
             points="0 4.9 6.37 5.2 6.59 5.58 7.47 5.58 7.47 5.24 13.58 5.33 14.22 4.2 14.62 4.2 14.62 3.93 14.44 3.93 14.44 3.62 15.19 3.62 15.19 3.96 15.02 3.97 15.03 4.2 17.07 4.13 17.62 2.62 18.41 2.62 18.41 2.15 18.91 2.15 18.91 2.65 20.7 2.58 21.46 0.78 21.78 0.78 21.78 0.49 21.62 0.49 21.62 0.21 22.56 0.21 22.56 0.49 22.26 0.54 22.26 0.81 23.55 0.73 23.75 0 24.25 0 24.46 0.85 25.39 0.8 25.39 0.49 25.13 0.53 25.13 0.26 26.07 0.24 26.07 0.56 25.87 0.57 25.85 0.77 26.62 0.78 26.33 0.94 28.32 4.18 29.49 4.13 29.49 3.81 29.87 3.81 30.56 5.3 31.21 5.31 31.21 4.82 31.96 4.85 32.52 5.35 32.52 5.86 33.77 5.86 36.35 5.86 35.9 7.02 1.85 6.86 0 4.9"/>
    <polygon class="cls-3"
             points="5.28 4.43 5.39 4.25 6.07 4.82 6.63 4.79 6.86 4.82 6.99 4.96 7.21 5.06 7.21 5.3 7.47 5.38 7.47 5.58 6.59 5.58 6.37 5.2 5.8 5.17 5.89 4.92 5.28 4.43"/>
    <polygon class="cls-3" points="9.13 5.27 9.13 4.6 8.52 4.1 8.62 3.99 9.34 4.46 10.17 4.46 10.17 5.28 9.13 5.27"/>
    <polygon class="cls-3"
             points="11.25 5.3 11.53 4.59 11.35 4.5 11.31 4.2 11.62 3.71 12.06 3.71 12.36 4.19 12.46 4.5 12.22 4.63 12.46 5.31 11.25 5.3"/>
</svg>