<svg id="Слой_1" data-name="Слой 1" xmlns="http://www.w3.org/2000/svg" xmlns:xlink="http://www.w3.org/1999/xlink"
     viewBox="0 0 987.97 246.27">
    <defs>
        <style>
            .cls-1{fill:none;}.cls-2{clip-path:url(#clip-path);}.cls-3{fill:#999;}.cls-4{fill:#28bf2c;}.cls-5{fill:#2ece32;}.cls-6{clip-path:url(#clip-path-3);}.cls-7{opacity:0.1;}.cls-8{clip-path:url(#clip-path-4);}.cls-9{opacity:0.11;}.cls-10{clip-path:url(#clip-path-5);}.cls-11{fill:#28bf3a;}.cls-12{fill:#fcee21;}.cls-13{fill:#fbb03b;}.cls-14{fill:#2dbf28;}.cls-15{fill:#e6e6e6;}.cls-16{fill:#4d4d4d;}.cls-17{fill:gray;}.cls-18{fill:#333;}.cls-19{fill:#ccc;}.cls-20{fill:#b3b3b3;}.cls-21{opacity:0.7;}.cls-22{clip-path:url(#clip-path-7);}.cls-23{opacity:0.5;}.cls-24{clip-path:url(#clip-path-8);}.cls-25{clip-path:url(#clip-path-9);}.cls-26{fill:#bc2a2a;}.cls-27{fill:#a03535;}
        </style>
        <clipPath id="clip-path" transform="translate(-12.24 -133.62)">
            <rect class="cls-1" x="3" y="-1" width="997.21" height="501.36"/>
        </clipPath>
        <clipPath id="clip-path-3" transform="translate(-12.24 -133.62)">
            <rect class="cls-1" x="11.95" y="-1" width="988.26" height="501.36"/>
        </clipPath>
        <clipPath id="clip-path-4" transform="translate(-12.24 -133.62)">
            <rect class="cls-1" x="39.12" y="318.98" width="875.78" height="53.38"/>
        </clipPath>
        <clipPath id="clip-path-5" transform="translate(-12.24 -133.62)">
            <rect class="cls-1" x="465.8" y="344.42" width="96.66" height="22.05"/>
        </clipPath>
        <clipPath id="clip-path-7" transform="translate(-12.24 -133.62)">
            <rect class="cls-1" x="399.91" y="232.03" width="199.8" height="47.13"/>
        </clipPath>
        <clipPath id="clip-path-8" transform="translate(-12.24 -133.62)">
            <rect class="cls-1" x="778.49" y="210.2" width="118.11" height="37.17"/>
        </clipPath>
        <clipPath id="clip-path-9" transform="translate(-12.24 -133.62)">
            <rect class="cls-1" x="898.23" y="243.88" width="86.35" height="27.88"/>
        </clipPath>
    </defs>
    <title>Kreyser_red</title>
    <g class="cls-2">
        <g class="cls-2">
            <polygon class="cls-3"
                     points="564.75 237.99 578.86 230.26 642.84 229 659.9 236.46 642.84 244.09 579.84 245.23 564.75 237.99"/>
            <polygon class="cls-3"
                     points="95.05 209.78 30.07 193 26.88 185.37 19.87 168.61 947.74 151.84 914.24 189.96 902.65 200.44 875.47 225.03 136.17 238.75 95.05 209.78"/>
            <path class="cls-3"
                  d="M32.92,302.76l6.69,16,3.09,7.38,64.73,16.71.09,0,.08.06,41,28.87,738.94-13.72,27-24.45,11.57-10.46L958.75,286Zm74.38,40.63-65-16.77L39.12,319l-7-16.76L960,285.45l-33.5,38.12-11.59,10.49-27.17,24.58L148.41,372.36Z"
                  transform="translate(-12.24 -133.62)"/>
            <polygon class="cls-3"
                     points="95.05 209.78 30.07 193 26.88 185.37 184.72 215.51 863.43 206.45 902.65 200.44 875.47 225.03 136.17 238.75 95.05 209.78"/>
            <polygon class="cls-3" points="465.74 211.76 536.79 210.81 550.21 231.06 453.56 232.86 465.74 211.76"/>
            <polygon class="cls-3"
                     points="101.52 233.79 110.33 215.5 119.14 219.69 110.33 232.27 196.08 232.27 193.73 233.79 101.52 233.79"/>
            <polygon class="cls-3" points="83.89 233.79 78.61 229.22 92.12 229.22 101.51 233.79 83.89 233.79"/>
            <polygon class="cls-3" points="78.61 238.37 83.89 233.79 101.51 233.79 92.12 238.37 78.61 238.37"/>
            <polygon class="cls-3" points="82.72 233.79 78.61 231.5 89.77 231.5 101.52 233.79 82.72 233.79"/>
            <polygon class="cls-3" points="47.48 212.06 48.06 197.33 78.61 205.27 60.98 215.5 47.48 212.06"/>
            <polygon class="cls-4"
                     points="564.75 237.99 578.86 230.26 642.84 229 659.9 236.46 642.84 244.09 579.84 245.23 564.75 237.99"/>
            <polygon class="cls-5"
                     points="95.05 209.78 30.07 193 26.88 185.37 19.87 168.61 947.74 151.84 914.24 189.96 902.65 200.44 875.47 225.03 136.17 238.75 95.05 209.78"/>
            <g class="cls-6">
                <g class="cls-7">
                    <g class="cls-8">
                        <polygon
                                points="136.17 238.75 95.06 209.78 30.07 193 26.88 185.37 184.72 215.51 863.44 206.45 902.65 200.44 875.47 225.03 136.17 238.75"/>
                    </g>
                </g>
                <g class="cls-9">
                    <g class="cls-10">
                        <polygon
                                points="453.56 232.86 465.74 211.76 536.73 210.81 536.79 210.81 550.21 231.06 453.61 232.86 453.56 232.86"/>
                    </g>
                </g>
            </g>
            <polygon class="cls-11"
                     points="101.52 233.79 110.33 215.5 119.14 219.69 110.33 232.27 196.08 232.27 193.73 233.79 101.52 233.79"/>
            <polygon class="cls-12" points="83.89 233.79 78.61 229.22 92.12 229.22 101.51 233.79 83.89 233.79"/>
            <polygon class="cls-12" points="78.61 238.37 83.89 233.79 101.51 233.79 92.12 238.37 78.61 238.37"/>
            <polygon class="cls-13" points="82.72 233.79 78.61 231.5 89.77 231.5 101.52 233.79 82.72 233.79"/>
            <polygon class="cls-14" points="47.48 212.06 48.06 197.33 78.61 205.27 60.98 215.5 47.48 212.06"/>
            <polygon class="cls-15" points="8.59 151.52 958.48 136.27 946.67 151.14 18.79 167.91 8.59 151.52"/>
            <polygon class="cls-16" points="291.88 2.65 367.57 1.65 391.36 58.5 271.64 60.07 291.88 2.65"/>
            <polygon class="cls-16" points="418.04 0.99 493.73 0 517.52 56.85 397.8 58.42 418.04 0.99"/>
            <polygon class="cls-17"
                     points="230.51 32.87 242.95 19.66 270.73 19.3 284.21 32.4 285.25 65.82 231.56 66.52 230.51 32.87"/>
            <polygon class="cls-17"
                     points="297.09 31.99 309.52 18.79 337.29 18.43 350.78 31.53 351.82 64.94 298.13 65.65 297.09 31.99"/>
            <polygon class="cls-17"
                     points="363.66 31.12 376.09 17.92 403.87 17.55 417.35 30.66 418.39 64.07 364.7 64.78 363.66 31.12"/>
            <polygon class="cls-3"
                     points="220.71 54.29 398.68 51.96 454.83 14.02 589.71 12.25 639.07 43.01 638.12 83.5 168.37 89.66 220.71 54.29"/>
            <polygon class="cls-18" points="465.67 26.92 610.05 25.03 621.82 32.26 465.8 34.3 465.67 26.92"/>
            <polygon class="cls-18" points="204.58 65.19 292.71 64.03 292.84 68.16 198.35 69.4 204.58 65.19"/>
            <polygon class="cls-17" points="752.08 59.23 863.01 51.91 863.29 56.48 752.36 63.8 752.08 59.23"/>
            <polygon class="cls-19" points="701.63 50.91 772.04 50.35 797.23 78.35 679.86 80.39 701.63 50.91"/>
            <polygon class="cls-20" points="0 90.46 987.97 75.23 987.97 77.43 957.94 136.97 9.67 152.22 0 90.46"/>
            <polygon class="cls-19" points="0 89.71 659.9 80.39 644.36 97.38 2.92 109.14 0 89.71"/>
            <g class="cls-6">
                <g class="cls-21">
                    <g class="cls-22">
                        <polygon class="cls-3"
                                 points="425.26 145.54 387.67 102.08 387.67 102.08 587.44 98.42 587.47 98.42 558.43 143.41 425.26 145.54"/>
                    </g>
                </g>
                <g class="cls-23">
                    <g class="cls-24">
                        <polygon class="cls-3"
                                 points="766.25 113.75 790.4 78.06 884.3 76.59 884.36 76.59 863.44 111.66 766.29 113.75 766.25 113.75"/>
                    </g>
                </g>
                <g class="cls-23">
                    <g class="cls-25">
                        <polygon class="cls-3"
                                 points="885.99 138.15 898.88 112.01 972.32 110.27 972.34 110.27 972.34 110.27 957.69 137.1 885.99 138.15"/>
                    </g>
                </g>
            </g>
            <polygon class="cls-26"
                     points="14.19 168.77 948.08 151.66 915.05 190.91 875.01 227.14 646.78 231.17 664.79 237.21 640.79 245.26 577.73 246.27 559.72 239.22 572.73 232.17 131.3 240.23 90.27 211.04 73.25 207.01 55.23 217.07 42.22 213.05 43.22 197.96 24.2 193.93 14.19 168.77"/>
            <polygon class="cls-27"
                     points="104.81 221.38 97.46 234.38 124.38 234.38 121.39 231.38 109.43 231.38 112.53 226.88 104.81 221.38"/>
        </g>
    </g>
    <polygon class="cls-26"
             points="11.26 168.95 947.76 151.88 914.63 191.03 874.49 227.16 645.61 231.18 663.67 237.2 639.61 245.23 576.37 246.23 558.31 239.21 571.36 232.18 128.7 240.21 87.54 211.1 70.48 207.08 52.41 217.12 39.36 213.11 40.37 198.05 21.3 194.04 11.26 168.95"/>
    <polygon class="cls-27"
             points="102.13 221.42 94.76 234.38 121.76 234.38 118.76 231.38 106.76 231.38 109.87 226.9 102.13 221.42"/>
</svg>