<svg id="Слой_1" data-name="Слой 1" xmlns="http://www.w3.org/2000/svg" viewBox="0 0 1500 406.53">
    <defs>
        <style>
            .cls-1{fill:#666;}.cls-2{fill:#6d6d6d;}.cls-3{fill:#999;}.cls-4{fill:gray;}.cls-5{fill:#f2f2f2;}.cls-6{fill:#333;}.cls-7{fill:#d8c571;}.cls-8{fill:#fbb03b;}.cls-9{fill:#ccc;}.cls-10{fill:#7f7f7f;}.cls-11{fill:#b4cacc;}
        </style>
    </defs>
    <title>Linkor_white</title>
    <polygon class="cls-1"
             points="990.02 276.05 922.39 70.95 634.15 70.95 586.48 139.69 440.13 139.69 358.09 221.73 187.36 221.73 131.38 277.72 990.02 276.05"/>
    <polygon class="cls-1" points="838.69 277.16 821.51 216.19 608.65 216.19 577.61 277.16 838.69 277.16"/>
    <polygon class="cls-2" points="900.13 276.05 917.32 215.08 1130.18 215.08 1161.22 276.05 900.13 276.05"/>
    <polygon class="cls-3" points="1088.14 311.16 1043.24 201.41 763.86 201.41 711.75 311.16 1088.14 311.16"/>
    <polygon class="cls-4" points="311.71 278.27 363.81 196.23 709.71 196.23 809.49 277.16 311.71 278.27"/>
    <polygon class="cls-3" points="1307.46 278.27 1296.01 227.27 1272.73 227.27 1264.6 278.27 1307.46 278.27"/>
    <polygon class="cls-1" points="1277.16 186.71 1386.78 178.49 1390.24 182.6 1281.78 188.47 1277.16 186.71"/>
    <rect class="cls-4" x="1252.77" y="209.21" width="66.52" height="66.52" rx="12"
          transform="translate(2572.06 443.13) rotate(-180)"/>
    <polygon class="cls-3" points="832.59 70.95 822.62 43.24 810.42 43.24 801.55 70.95 832.59 70.95"/>
    <rect class="cls-1" x="815.96" y="52.89" width="77.61" height="6.65"
          transform="translate(-0.53 61.91) rotate(-6.94)"/>
    <rect class="cls-4" x="793.79" y="41.8" width="46.56" height="46.56" rx="12"
          transform="translate(1634.15 88.37) rotate(-180)"/>
    <polygon class="cls-4" points="534.37 139.69 541.02 120.84 513.3 120.84 519.4 139.69 534.37 139.69"/>
    <polygon class="cls-3" points="517.72 100.25 460.36 89.88 463.1 87.98 519.69 98.21 517.72 100.25"/>
    <polygon class="cls-3" points="509.47 104.8 475.22 98.61 476.86 97.47 510.65 103.58 509.47 104.8"/>
    <rect class="cls-1" x="504.43" y="118.3" width="45.45" height="45.45" rx="12"
          transform="translate(1054.32 240.25) rotate(-180)"/>
    <polyline class="cls-5" points="1411.22 369.79 161.48 369.79 102.55 333.06 16.31 297.12 1477.68 297.12"/>
    <polygon class="cls-6" points="1053.44 192.36 933.48 192.36 933.48 202.88 1057.75 202.88 1053.44 192.36"/>
    <polygon class="cls-6" points="1053.44 192.36 933.48 192.36 933.48 202.88 1057.75 202.88 1053.44 192.36"/>
    <polygon class="cls-6" points="928.63 89.85 930.11 94.34 868.07 94.34 868.07 89.8 928.63 89.85"/>
    <polygon class="cls-6" points="617.92 94.34 694.01 94.23 694.01 87.58 622.61 87.58 617.92 94.34"/>
    <polygon class="cls-6" points="610 105.77 614.54 99.22 694.01 99.22 694.01 105.32 610 105.77"/>
    <polygon class="cls-5"
             points="179.85 360.61 91.07 360.61 94.9 325.41 104.08 327.7 99.49 354.49 179.85 354.49 179.85 360.61"/>
    <polygon class="cls-7" points="91.07 360.61 80.36 354.49 59.69 354.49 63.52 357.55 68.88 360.61 91.07 360.61"/>
    <polygon class="cls-7" points="91.07 360.61 80.36 366.73 59.69 366.73 63.52 363.67 68.88 360.61 91.07 360.61"/>
    <polygon class="cls-8" points="91.07 360.61 80.36 356.78 59.69 356.78 66.58 360.61 91.07 360.61"/>
    <polygon class="cls-9"
             points="195.79 369.79 161.48 364.44 113.27 329.23 43.19 308.32 94.43 329.68 103.19 333.46 161.48 369.79 195.79 369.79"/>
    <polygon class="cls-5" points="77.48 320 80.57 328.84 59.22 322.14 65.03 316.09 77.48 320"/>
    <polygon class="cls-5"
             points="1412.76 366.73 1438.01 385.1 1412.76 406.53 1349.23 406.53 1331.63 386.63 1351.53 366.73 1412.76 366.73"/>
    <polygon class="cls-9" points="1438.78 339.95 1240.56 343.77 1193.88 369.79 1412.76 369.79 1438.78 339.95"/>
    <polygon class="cls-9" points="266.33 369.79 116.7 341.88 161.48 369.79 266.33 369.79"/>
    <polygon class="cls-10" points="1071 235.28 936.74 241.99 900 268.77 1084.71 268.77 1071 235.28"/>
    <polygon class="cls-9" points="16.31 297.12 0 276.05 1500 254.63 1477.68 297.12 16.31 297.12"/>
    <polygon class="cls-2" points="940.7 129.53 811.99 129.53 717.86 147.86 946.74 147.86 940.7 129.53"/>
    <polygon class="cls-11" points="1489.97 273.72 1331.63 277.19 1275 297.12 1477.81 297.09 1489.97 273.72"/>
    <polygon class="cls-11" points="1088.14 297.12 1078.32 277.96 995.66 281.02 980.36 297.12 1088.14 297.12"/>
    <polygon class="cls-11" points="756.5 265.25 731.63 277.72 651.28 278.27 639.02 266.92 756.5 265.25"/>
    <polygon class="cls-11" points="392.22 297.12 373.47 290.97 351.28 290.97 331 297.12 392.22 297.12"/>
    <polygon class="cls-11" points="267.87 272.23 267.86 282.55 222.7 282.55 222.7 272.87 267.87 272.23"/>
</svg>