<svg id="Слой_1" data-name="Слой 1" xmlns="http://www.w3.org/2000/svg" xmlns:xlink="http://www.w3.org/1999/xlink"
     viewBox="0 0 65 13.89">
    <defs>
        <style>
            .cls-1{fill:red;}.cls-2{fill:url(#Безымянный_градиент_14);}.cls-3{fill:#0071bc;}.cls-4{fill:#333;}.cls-5{fill:#2e3192;}.cls-6{fill:#1b1464;}
        </style>
        <linearGradient id="Безымянный_градиент_14" y1="8.49" x2="65" y2="8.49" gradientUnits="userSpaceOnUse">
            <stop offset="0" stop-color="#00008b"/>
            <stop offset="1"/>
        </linearGradient>
    </defs>
    <title>Linkor_red</title>
    <path class="cls-1"
          d="M1.32,24.85c-.55,0-.86-.24-.68-.52A1.73,1.73,0,0,1,2,23.81l61,.06a1.93,1.93,0,0,1,1.41.59c.23.33,0,.59-.59.59Z"
          transform="translate(0 -11.16)"/>
    <polygon class="cls-2"
             points="0 10.05 0 8.94 4.38 8.94 42.41 8.94 42.41 7.87 41.34 7.13 41.34 6.89 41.56 6.68 41.43 4.58 45.34 4.3 46.44 4.27 47.28 4.28 47.28 5 47.83 4.99 48.04 4.31 48.43 5.48 49.43 5.49 49.43 6.27 48.71 6.63 48.74 8.94 64.69 8.93 65 9.33 65 12.71 2.67 12.65 0.04 10.09 0 10.05"/>
    <polygon class="cls-3"
             points="4.38 8.77 3.88 8.77 3.94 8.54 4.13 8.48 4.8 8.38 5.03 8.3 6.5 8.3 6.57 8.43 7.49 8.42 7.79 7.67 8.16 7.79 7.87 8.47 7.83 8.81 6.54 8.81 6.11 8.8 4.74 8.78 4.38 8.77"/>
    <rect class="cls-4" x="4.38" y="8.77" width="0.41" height="0.16"/>
    <rect class="cls-4" x="6.14" y="8.81" width="0.4" height="0.13"/>
    <polygon class="cls-3"
             points="12.51 8.77 12 8.77 12.06 8.54 12.26 8.48 12.92 8.38 13.16 8.3 14.62 8.3 14.69 8.43 15.61 8.42 15.91 7.67 16.29 7.79 16 8.47 15.96 8.81 14.67 8.81 14.24 8.8 12.87 8.78 12.51 8.77"/>
    <rect class="cls-4" x="12.51" y="8.77" width="0.41" height="0.16"/>
    <rect class="cls-4" x="14.26" y="8.81" width="0.4" height="0.13"/>
    <polygon class="cls-3"
             points="16.7 8.77 16.19 8.77 16.25 8.54 16.44 8.48 17.11 8.38 17.34 8.3 18.81 8.3 18.88 8.43 19.8 8.42 20.1 7.67 20.47 7.79 20.18 8.47 20.14 8.81 18.85 8.81 18.42 8.8 17.05 8.78 16.7 8.77"/>
    <rect class="cls-4" x="16.69" y="8.77" width="0.41" height="0.16"/>
    <rect class="cls-4" x="18.45" y="8.81" width="0.4" height="0.13"/>
    <polygon class="cls-3"
             points="24.81 8.77 24.3 8.77 24.37 8.54 24.56 8.48 25.22 8.38 25.46 8.3 26.92 8.3 27 8.43 27.92 8.42 28.22 7.67 28.59 7.79 28.3 8.47 28.26 8.81 26.97 8.81 26.54 8.8 25.17 8.78 24.81 8.77"/>
    <rect class="cls-4" x="24.81" y="8.77" width="0.41" height="0.16"/>
    <rect class="cls-4" x="26.56" y="8.81" width="0.4" height="0.13"/>
    <polygon class="cls-3"
             points="28.93 8.77 28.42 8.77 28.48 8.54 28.68 8.48 29.34 8.38 29.58 8.3 31.04 8.3 31.12 8.43 32.03 8.42 32.34 7.67 32.71 7.79 32.42 8.47 32.38 8.81 31.09 8.81 30.66 8.8 29.29 8.78 28.93 8.77"/>
    <rect class="cls-4" x="28.93" y="8.77" width="0.41" height="0.16"/>
    <rect class="cls-4" x="30.68" y="8.81" width="0.4" height="0.13"/>
    <polygon class="cls-3"
             points="33.04 8.77 32.53 8.77 32.59 8.54 32.78 8.48 33.45 8.38 33.68 8.3 35.15 8.3 35.22 8.43 36.14 8.42 36.44 7.67 36.82 7.79 36.53 8.47 36.49 8.81 35.19 8.81 34.77 8.8 33.39 8.78 33.04 8.77"/>
    <rect class="cls-4" x="33.04" y="8.77" width="0.41" height="0.16"/>
    <rect class="cls-4" x="34.79" y="8.81" width="0.4" height="0.13"/>
    <polygon class="cls-3"
             points="37.15 8.77 36.64 8.77 36.7 8.54 36.89 8.48 37.56 8.38 37.79 8.3 39.26 8.3 39.33 8.43 40.25 8.42 40.55 7.67 40.93 7.79 40.64 8.47 40.6 8.81 39.3 8.81 38.88 8.8 37.5 8.78 37.15 8.77"/>
    <rect class="cls-4" x="37.15" y="8.77" width="0.41" height="0.16"/>
    <rect class="cls-4" x="38.9" y="8.81" width="0.4" height="0.13"/>
    <polygon class="cls-5"
             points="47.9 2.45 48.27 2.61 48.27 3.04 49 3.14 48.95 3.31 48.38 3.31 48.43 5.48 48.04 4.31 47.83 4.99 47.83 3.21 47.67 3.19 47.67 3.03 47.9 2.45"/>
    <polygon class="cls-5"
             points="46.55 4.27 46.43 2.92 47.67 2.92 47.67 2.62 46.37 2.62 46.32 1.73 47.3 1.73 47.25 1.5 46.32 1.5 46.21 0.83 46.78 0.83 46.8 0.3 46.49 0 45.65 0 45.02 0.3 45.02 0.69 45.67 0.8 45.64 1.58 44.56 1.57 44.56 1.82 45.46 2.58 44.13 2.61 44.13 3 45.28 3.67 45.28 4.27 46.55 4.27"/>
    <polygon class="cls-5"
             points="45.21 4.27 43.57 4.27 43.57 4.06 43.78 4.06 43.75 3.76 43.95 3.76 43.94 2.22 42.59 2.22 42.59 3.8 42.71 4.11 43.15 4.13 43.12 4.27 42.21 4.27 42.21 2.64 41.96 2.62 41.96 4.27 41.79 4.27 41.79 2.96 41.5 2.96 41.5 4.27 41.06 4.27 41.06 4.58 41.43 4.58 41.45 4.85 45.21 4.27"/>
    <polygon class="cls-6" points="0.87 10.89 4.29 8.94 0 8.94 0 10.05 0.87 10.89"/>
    <polygon class="cls-6" points="41.57 4.83 45.21 4.27 45.28 4.27 45.52 6.01 41.57 5.65 41.57 4.83"/>
    <polygon class="cls-5"
             points="47.28 4.28 47.83 4.27 48.04 4.31 48.43 5.48 49.43 5.49 49.43 6.27 48.71 6.63 48.72 6.79 47.52 6.45 47.76 4.99 47.28 5 47.28 4.28"/>
    <polygon class="cls-5" points="53.42 8.94 55.21 8.94 55.51 10.49 53.42 8.94"/>
    <polygon class="cls-5" points="58.91 8.93 60.28 12.7 60.98 12.7 60.73 8.93 58.91 8.93"/>
</svg>