<svg id="Слой_1" data-name="Слой 1" xmlns="http://www.w3.org/2000/svg" viewBox="0 0 1960 531.2">
    <defs>
        <style>
            .cls-1{fill:#666;}.cls-2{fill:#6d6d6d;}.cls-3{fill:#999;}.cls-4{fill:gray;}.cls-5{fill:#28bf33;}.cls-6{fill:#333;}.cls-7{fill:#28a52b;}.cls-8{fill:#d8c571;}.cls-9{fill:#fbb03b;}.cls-10{fill:#2fa528;}.cls-11{fill:#31a528;}.cls-12{fill:#28a53d;}.cls-13{fill:#28a528;}.cls-14{fill:#7f7f7f;}.cls-15{fill:#ccc;}.cls-16{fill:#b4cacc;}
        </style>
    </defs>
    <title>Linkor_green</title>
    <polygon class="cls-1"
             points="1293.63 360.71 1205.26 92.71 828.62 92.71 766.33 182.53 575.11 182.53 467.91 289.73 244.82 289.73 171.66 362.88 1293.63 360.71"/>
    <polygon class="cls-1" points="1095.89 362.16 1073.44 282.48 795.3 282.48 754.74 362.16 1095.89 362.16"/>
    <polygon class="cls-2" points="1176.18 360.71 1198.63 281.04 1476.77 281.04 1517.33 360.71 1176.18 360.71"/>
    <polygon class="cls-3" points="1421.83 362.16 1363.16 218.74 998.11 218.74 930.02 362.16 1421.83 362.16"/>
    <polygon class="cls-4" points="407.3 363.61 475.38 256.41 927.36 256.41 1057.73 362.16 407.3 363.61"/>
    <polygon class="cls-3" points="1708.42 363.61 1693.45 296.97 1663.03 296.97 1652.41 363.61 1708.42 363.61"/>
    <polygon class="cls-1" points="1668.83 243.97 1812.06 233.23 1816.59 238.6 1674.86 246.27 1668.83 243.97"/>
    <rect class="cls-4" x="1654.95" y="846.55" width="86.92" height="86.92" rx="12"
          transform="translate(3378.83 1152.21) rotate(-180)"/>
    <polygon class="cls-3" points="1087.92 92.71 1074.88 56.5 1058.95 56.5 1047.36 92.71 1087.92 92.71"/>
    <rect class="cls-1" x="1084.19" y="642.29" width="101.4" height="8.69"
          transform="translate(-87.83 -485.91) rotate(-6.94)"/>
    <rect class="cls-4" x="1055.22" y="627.8" width="60.84" height="60.84" rx="12"
          transform="translate(2153.28 688.64) rotate(-180)"/>
    <polygon class="cls-4" points="698.24 182.53 706.93 157.9 670.72 157.9 678.68 182.53 698.24 182.53"/>
    <polygon class="cls-3" points="676.48 131 601.53 117.45 605.12 114.96 679.06 128.32 676.48 131"/>
    <polygon class="cls-3" points="665.71 136.94 620.95 128.85 623.1 127.36 667.25 135.34 665.71 136.94"/>
    <rect class="cls-1" x="677.13" y="727.76" width="59.39" height="59.39" rx="12"
          transform="translate(1395.65 887.11) rotate(-180)"/>
    <polyline class="cls-5" points="1844 483.2 211 483.2 134 435.2 21.32 388.23 1930.83 388.23"/>
    <polygon class="cls-6" points="1376.5 251.35 1219.75 251.35 1219.75 265.1 1382.13 265.1 1376.5 251.35"/>
    <polygon class="cls-6" points="1376.5 251.35 1219.75 251.35 1219.75 265.1 1382.13 265.1 1376.5 251.35"/>
    <polygon class="cls-6" points="1213.4 117.41 1215.34 123.28 1134.28 123.28 1134.28 117.34 1213.4 117.41"/>
    <polygon class="cls-6" points="807.42 123.28 906.84 123.13 906.84 114.44 813.55 114.44 807.42 123.28"/>
    <polygon class="cls-6" points="797.06 138.21 803 129.65 906.84 129.65 906.84 137.62 797.06 138.21"/>
    <polygon class="cls-7" points="235 471.2 119 471.2 124 425.2 136 428.2 130 463.2 235 463.2 235 471.2"/>
    <polygon class="cls-8" points="119 471.2 105 463.2 78 463.2 83 467.2 90 471.2 119 471.2"/>
    <polygon class="cls-8" points="119 471.2 105 479.2 78 479.2 83 475.2 90 471.2 119 471.2"/>
    <polygon class="cls-9" points="119 471.2 105 466.2 78 466.2 87 471.2 119 471.2"/>
    <polygon class="cls-10"
             points="255.83 483.2 211 476.2 148 430.2 56.43 402.87 123.39 430.78 134.83 435.72 211 483.2 255.83 483.2"/>
    <polygon class="cls-11" points="101.24 418.13 105.28 429.68 77.39 420.93 84.97 413.02 101.24 418.13"/>
    <polygon class="cls-5" points="1846 479.2 1879 503.2 1846 531.2 1763 531.2 1740 505.2 1766 479.2 1846 479.2"/>
    <polygon class="cls-12" points="1880 444.2 1621 449.2 1560 483.2 1846 483.2 1880 444.2"/>
    <polygon class="cls-13" points="348 483.2 152.49 446.72 211 483.2 348 483.2"/>
    <polygon class="cls-14" points="1399.44 307.43 1224 316.2 1176 351.2 1417.35 351.2 1399.44 307.43"/>
    <polygon class="cls-15" points="21.32 388.23 0 360.71 1960 332.71 1930.83 388.23 21.32 388.23"/>
    <polygon class="cls-2" points="1229.18 169.25 1061 169.25 938 193.2 1237.08 193.2 1229.18 169.25"/>
    <polygon class="cls-16" points="1946.89 357.67 1740 362.2 1666 388.23 1931 388.2 1946.89 357.67"/>
    <polygon class="cls-16" points="1421.83 388.23 1409 363.2 1301 367.2 1281 388.23 1421.83 388.23"/>
    <polygon class="cls-16" points="988.49 346.59 956 362.88 851 363.61 834.99 348.78 988.49 346.59"/>
    <polygon class="cls-16" points="512.5 388.23 488 380.2 459 380.2 432.5 388.23 512.5 388.23"/>
    <polygon class="cls-16" points="350.01 355.71 350 369.2 291 369.2 291 356.55 350.01 355.71"/>
</svg>