<svg id="Слой_1" data-name="Слой 1" xmlns="http://www.w3.org/2000/svg" viewBox="0 0 1921 540.5">
    <defs>
        <style>
            .cls-1{fill:#4d4d4d;}.cls-2{fill:#c1272d;}.cls-3{fill:#666;}.cls-4{fill:#e6e6e6;}.cls-5{fill:#c4c4c4;}.cls-6{fill:#999;}.cls-7{fill:#a5343c;}.cls-8{fill:#939393;}.cls-9{fill:#565656;}
        </style>
    </defs>
    <title>Torped_red</title>
    <polygon class="cls-1" points="199.83 469.79 171.28 494.51 171.28 525.17 223.62 510.33 199.83 469.79"/>
    <polygon class="cls-2" points="237.3 540.5 1435.1 540.5 1714.63 439.1 168.31 439.1 237.3 540.5"/>
    <rect class="cls-3" x="697.03" y="228.99" width="419.88" height="5.07"/>
    <rect class="cls-1" x="686.33" y="181.67" width="500.77" height="9.29"/>
    <rect class="cls-1" x="686.33" y="181.67" width="21.41" height="89.57"/>
    <rect class="cls-1" x="1106.21" y="181.67" width="21.41" height="89.57"/>
    <rect class="cls-1" x="896.86" y="181.67" width="21.41" height="89.57"/>
    <polygon class="cls-4" points="167.72 438.68 110.62 398.12 1819.89 398.12 1714.03 439.52 167.72 438.68"/>
    <polygon class="cls-5"
             points="1.19 316.03 678 261.95 1114.54 257.72 1206.13 66.75 1304.85 66.75 1557.02 132.66 1486.84 238.29 1921 316.03 1.19 316.03"/>
    <polygon class="cls-1" points="1465.43 230.68 1530.85 133.51 1333.4 133.51 1333.4 230.68 1465.43 230.68"/>
    <rect class="cls-1" x="1233.48" y="202.8" width="90.4" height="27.88"/>
    <rect class="cls-1" x="1233.48" y="133.51" width="90.4" height="27.88"/>
    <rect class="cls-1" x="1200.18" y="51.54" width="116.57" height="17.74"/>
    <rect class="cls-1" x="1220.4" width="5.95" height="59.99"/>
    <polygon class="cls-1" points="824.9 181.68 851.66 141.96 1003.92 141.96 1033.06 182.1 824.9 181.68"/>
    <polygon class="cls-3"
             points="883.78 141.96 883.78 118.3 896.27 109.43 967.04 109.43 977.45 116.82 977.45 141.96 883.78 141.96"/>
    <polygon class="cls-6" points="919.94 132.46 808.97 122.7 809.56 119.35 920.52 129.1 919.94 132.46"/>
    <polygon class="cls-7"
             points="195.75 479.42 1295.34 479.42 1375.43 439.52 1439.66 439.52 1329.83 504.4 212.74 504.4 195.75 479.42"/>
    <polygon class="cls-7"
             points="948.01 540.5 973.88 518.99 1416.66 518.99 1625.22 439.52 1714.03 439.13 1439.66 538.85 948.01 540.5"/>
    <polygon class="cls-8" points="1819.89 398.57 1921 316.49 0 316.49 110.62 398.57 1819.89 398.57"/>
    <polygon class="cls-9" points="1693.22 398.57 1886.4 344.58 1819.89 398.57 1693.22 398.57"/>
</svg>