<svg id="Слой_1" data-name="Слой 1" xmlns="http://www.w3.org/2000/svg" viewBox="0 0 500 149.13">
    <defs>
        <style>
            .cls-1{fill:#4d4d4d;}.cls-2{fill:#bc2a2a;}.cls-3{fill:#666;}.cls-4{fill:#e6e6e6;}.cls-5{fill:#c4c4c4;}.cls-6{fill:#999;}.cls-7{fill:#a03535;}.cls-8{fill:#939393;}.cls-9{fill:#565656;}
        </style>
    </defs>
    <title>Torped_red</title>
    <polygon class="cls-1" points="20.55 129.17 12.5 136.15 12.5 144.8 27.26 140.61 20.55 129.17"/>
    <polygon class="cls-2"
             points="441.77 120.51 362.89 149.13 24.91 149.13 22.4 138.94 20.67 131.89 17.86 120.51 441.77 120.51"/>
    <rect class="cls-3" x="154.64" y="64.61" width="118.48" height="1.43"/>
    <rect class="cls-1" x="151.62" y="51.26" width="141.3" height="2.62"/>
    <rect class="cls-1" x="151.62" y="51.26" width="6.04" height="21.89"/>
    <rect class="cls-1" x="270.09" y="51.26" width="6.04" height="21.89"/>
    <rect class="cls-1" x="211.02" y="51.26" width="6.04" height="21.89"/>
    <polygon class="cls-4" points="17.7 120.39 10.62 108.95 471.47 108.95 441.6 120.63 17.7 120.39"/>
    <path class="cls-5"
          d="M.34,249.16l148.93-11.87,123.17-1.19,25.85-53.89h27.85l62,16.21a9.07,9.07,0,0,1,6.38,11.41l-6.33,20.78L500,249.16Z"
          transform="translate(0 -163.37)"/>
    <path class="cls-1" d="M382.18,228.47l4.29-14.53a9.06,9.06,0,0,0-8.68-11.63H334.2v26.16Z"
          transform="translate(0 -163.37)"/>
    <rect class="cls-1" x="303.61" y="38.94" width="25.51" height="7.87"/>
    <rect class="cls-1" x="296.61" y="14.54" width="32.89" height="5.01"/>
    <rect class="cls-1" x="302.31" width="1.68" height="16.93"/>
    <polygon class="cls-1" points="190.72 51.26 198.27 40.06 241.23 40.06 249.45 51.38 190.72 51.26"/>
    <polygon class="cls-6" points="217.53 37.38 186.22 34.62 186.39 33.68 217.7 36.43 217.53 37.38"/>
    <polygon class="cls-3"
             points="207.33 40.06 207.33 33.38 210.85 30.88 230.82 30.88 233.76 32.96 233.76 40.06 207.33 40.06"/>
    <polygon class="cls-7"
             points="364.18 120.63 333.19 138.94 22.4 138.94 20.67 131.89 323.46 131.89 346.06 120.63 364.18 120.63"/>
    <polygon class="cls-7"
             points="225.45 149.13 232.75 143.06 357.69 143.06 416.54 120.63 441.6 120.52 364.18 148.66 225.45 149.13"/>
    <polygon class="cls-8" points="471.47 109.08 500 85.92 0 85.92 10.62 109.08 471.47 109.08"/>
    <polygon class="cls-9" points="435.73 109.08 490.24 93.84 471.47 109.08 435.73 109.08"/>
    <rect class="cls-1" x="303.61" y="48.82" width="25.51" height="7.87"/>
    <polygon class="cls-2" points="276.13 85.92 285.83 75.9 308.13 75.9 321.95 85.92 276.13 85.92"/>
    <polygon class="cls-2" points="388.64 65.84 372.46 69.69 372.46 73.36 417.5 73.36 388.26 67.16 388.64 65.84"/>
    <polygon class="cls-2" points="456.73 85.92 445.26 81.55 412.81 78.72 370.77 85.92 456.73 85.92"/>
    <polygon class="cls-2"
             points="131.3 85.92 166.48 77.03 232.22 77.03 247.36 72.96 255.27 72.96 235.33 80.14 166.2 79.85 138.64 85.92 131.3 85.92"/>
    <polygon class="cls-2" points="290.07 35.98 294.3 41.2 282.73 64.62 275.27 66.82 290.07 35.98"/>
</svg>